HIERARCHY
ROOT Hips
{
  OFFSET 0 0 0
  CHANNELS 6 Xposition Yposition Zposition Zrotation Xrotation Yrotation
  JOINT Spine
  {
    OFFSET 0 10 0
    CHANNELS 3 Zrotation Xrotation Yrotation
    JOINT Neck
    {
      OFFSET 0 30 0
      CHANNELS 3 Zrotation Xrotation Yrotation
      JOINT Head
      {
        OFFSET 0 8 0
        CHANNELS 3 Zrotation Xrotation Yrotation
        End Site
        {
          OFFSET 0 10 0
        }
      }
    }
    JOINT LeftArm
    {
      OFFSET 15 30 0
      CHANNELS 3 Zrotation Xrotation Yrotation
      JOINT LeftForeArm
      {
        OFFSET 25 0 0
        CHANNELS 3 Zrotation Xrotation Yrotation
        JOINT LeftHand
        {
          OFFSET 25 0 0
          CHANNELS 3 Zrotation Xrotation Yrotation
          End Site
          {
            OFFSET 10 0 0
          }
        }
      }
    }
    JOINT RightArm
    {
      OFFSET -15 30 0
      CHANNELS 3 Zrotation Xrotation Yrotation
      JOINT RightForeArm
      {
        OFFSET -25 0 0
        CHANNELS 3 Zrotation Xrotation Yrotation
        JOINT RightHand
        {
          OFFSET -25 0 0
          CHANNELS 3 Zrotation Xrotation Yrotation
          End Site
          {
            OFFSET -10 0 0
          }
        }
      }
    }
  }
  JOINT LeftUpLeg
  {
    OFFSET 10 -10 0
    CHANNELS 3 Zrotation Xrotation Yrotation
    JOINT LeftLeg
    {
      OFFSET 0 -35 0
      CHANNELS 3 Zrotation Xrotation Yrotation
      JOINT LeftToe
      {
        OFFSET 0 -40 0
        CHANNELS 3 Zrotation Xrotation Yrotation
        JOINT LeftToeEnd
        {
          OFFSET 0 0 0
          CHANNELS 3 Zrotation Xrotation Yrotation
          End Site
          {
            OFFSET 0 0 15
          }
        }
      }
    }
  }
  JOINT RightUpLeg
  {
    OFFSET -10 -10 0
    CHANNELS 3 Zrotation Xrotation Yrotation
    JOINT RightLeg
    {
      OFFSET 0 -35 0
      CHANNELS 3 Zrotation Xrotation Yrotation
      JOINT RightToe
      {
        OFFSET 0 -40 0
        CHANNELS 3 Zrotation Xrotation Yrotation
        JOINT RightToeEnd
        {
          OFFSET 0 0 0
          CHANNELS 3 Zrotation Xrotation Yrotation
          End Site
          {
            OFFSET 0 0 15
          }
        }
      }
    }
  }
}
MOTION
Frames:	11
Frame Time:	0.0333333
-0.695811 83.5854 -13.133 -6.69124 8.97788 42.9279 6.59099 22.4848 11.6653 14.1648 -17.7158 21.2896 -27.8655 4.88094 29.1934 -79.7454 0.760191 11.7033 24.2746 -12.2156 -54.9943 -0.217927 -14.7303 0.939549 70.38 22.2163 12.1834 -26.0928 -12.1237 59.8009 0.333322 -1.84629 -1.29414 0.475752 -40.8761 -12.7766 -0.470808 49.6074 2.51493 -7.0588 -15.8643 -21.7326 -3.97569e-016 7.95139e-016 -0 -12.4752 -23.5204 -31.6788 -0.373924 55.1104 -1.59823 0.543929 -26.8664 -19.0301 -5.96354e-016 -1.59028e-015 -7.95139e-016 
-0.420164 90.7917 -10.7837 -5.66714 8.98447 54.5864 5.99756 19.4798 11.5243 13.767 -18.1581 20.7837 -29.0907 9.33592 30.2411 -76.9165 -3.31293 11.3805 24.4863 -12.8666 -55.7396 -0.238793 -16.5274 0.909531 72.6323 18.7082 9.13446 -24.9442 -11.4047 57.6717 0.25532 -0.995105 -1.32941 0.850076 -31.3948 -8.75788 -0.60484 33.129 1.59779 -0.848299 -0.294408 -24.0992 1.76556e-031 3.18055e-015 -3.18055e-015 -9.66636 -16.8036 -24.7582 0.16217 43.8178 -1.32016 6.235 -9.69569 -20.6516 -1.19271e-015 0 -7.95139e-016 
0.15293 96.9898 -9.19047 -4.77012 12.3464 68.303 6.18735 16.0975 10.1013 13.191 -17.9984 19.5641 -29.8291 13.8434 30.9936 -73.3386 -4.83181 11.6664 24.7584 -13.5028 -56.6194 -0.264362 -18.3714 0.849144 73.7759 15.4996 4.85797 -24.4003 -11.0989 56.5732 0.137443 -4.66435 -1.3506 1.52554 -26.3117 -4.01176 -0.771134 30.4488 1.61013 -0.855054 -2.7926 -18.7669 1.76556e-031 -3.18055e-015 3.18055e-015 -6.5247 -14.5455 -15.7974 0.184528 40.4486 -1.11848 5.75416 -7.03918 -17.6717 0 0 -6.36111e-015 
0.648922 102.242 -7.9561 -5.18723 7.49039 80.7044 6.3836 13.3573 7.82525 12.6706 -17.9177 17.9352 -30.1402 17.9307 31.381 -69.0775 -5.25784 11.01 24.8937 -13.9263 -57.0973 -0.287402 -19.7676 0.7792 74.5495 11.7964 0.134131 -24.0928 -10.9934 55.9348 0.0254208 -8.72145 -1.35422 2.60659 -22.5908 -0.178645 -0.870744 31.9951 1.48684 -1.78864 -8.85071 -11.1266 -1.59028e-015 1.19271e-015 -0 -3.81465 -13.8643 -8.63598 0.148517 39.779 -0.898218 3.56988 -7.74499 -13.9613 1.59028e-015 3.97569e-015 -6.36111e-015 
0.538747 105.998 -6.86892 -3.81782 -0.885438 94.3924 6.69693 12.8018 4.46828 12.633 -18.8175 16.1155 -30.1208 20.8893 31.0501 -63.8088 -5.04439 7.71863 24.7259 -13.8704 -56.6089 -0.288888 -19.65 0.718192 75.1287 7.37485 -4.5804 -24.2017 -11.2586 56.2986 0.0225659 -9.31368 -1.26702 4.37096 -20.1692 -0.52264 -0.919512 34.8133 1.06128 -1.9353 -10.1943 -6.96081 -1.98785e-016 3.10601e-016 -1.98785e-016 -2.7802 -13.9199 -10.3433 0.231595 41.326 -0.999883 2.52963 -8.8584 -13.4694 1.87591e-031 -3.37934e-015 3.18055e-015 
0.334263 108.64 -5.95327 -2.90546 5.2423 109.776 6.7773 12.7975 1.41603 12.421 -19.6665 14.1637 -29.2443 23.2986 29.8989 -58.6474 -4.74027 3.88649 24.4627 -13.6432 -55.8152 -0.28761 -18.9687 0.661485 75.3224 2.86775 -9.34171 -24.1614 -11.4163 56.3517 0.0145146 -8.99894 -1.17321 6.65848 -19.012 -1.49721 -0.951569 39.0428 0.654972 -2.15779 -10.2092 -3.41471 -7.95139e-016 2.5842e-015 -0 -2.77907 -14.832 -13.8571 0.319531 43.8244 -1.12865 2.00107 -9.98645 -13.3105 -7.95139e-016 -7.7526e-015 -0 
0.472421 110.413 -5.12235 -3.0728 8.03803 121.003 5.82122 12.0957 0.527285 11.5512 -19.5307 12.2525 -26.8174 25.4485 27.5488 -54.9711 -5.41047 0.978062 24.2659 -13.4921 -55.1983 -0.305759 -18.5924 0.606731 75.4811 -1.27644 -14.3667 -23.3216 -10.8794 54.7945 -0.0958112 -9.27791 -1.14578 8.73681 -17.676 -0.239889 -0.930998 41.0644 0.337458 -2.52887 -8.0356 1.13726 -7.95139e-016 -5.96354e-015 -3.18055e-015 -3.85493 -15.9245 -13.6445 0.287862 44.2141 -1.04815 2.27167 -8.0909 -11.3732 -2.38542e-015 3.8763e-015 1.59028e-015 
0.645993 111.211 -4.49706 -2.15134 5.85313 131.238 4.6655 11.2332 0.372695 10.3727 -18.9357 10.3877 -23.5712 27.2973 24.6563 -52.2531 -6.12726 -0.851102 24.1216 -13.3865 -54.7421 -0.327584 -17.6995 0.562998 75.0324 -4.71549 -18.8229 -22.0125 -9.94714 52.1373 -0.2517 -9.46966 -1.16044 10.333 -16.4696 1.49243 -0.881742 42.4701 0.161961 -3.15839 -5.4569 4.81012 -3.97569e-016 1.59028e-015 3.18055e-015 -5.46092 -16.5063 -12.3496 0.245155 43.8319 -0.938739 2.7082 -5.46937 -9.21296 1.59028e-015 1.59028e-015 3.18055e-015 
0.677081 110.989 -4.22158 -2.14353 6.41726 140.391 3.82026 10.3268 0.0510936 8.9916 -18.0679 8.63578 -20.095 28.9435 21.9491 -50.3168 -6.26218 -0.789822 24.0981 -13.4043 -54.6466 -0.340947 -15.183 0.545355 73.7035 -7.02791 -21.5654 -20.1764 -8.57488 48.0594 -0.440359 -9.47569 -1.23946 10.9724 -15.166 3.04125 -0.823448 43.7477 0.17187 -3.4678 -4.59737 6.33386 -2.38542e-015 3.18055e-015 -3.18055e-015 -7.5631 -15.6116 -10.8589 0.284217 43.1876 -0.918815 2.9549 -4.19057 -7.40826 3.18055e-015 -2.38542e-015 -0 
0.615094 109.793 -4.13462 -2.31781 7.37142 148.797 3.37486 9.29002 -0.149949 7.48931 -17.0517 6.92602 -16.5019 30.285 19.0656 -48.9947 -5.96297 0.701395 24.1238 -13.4878 -54.7473 -0.351489 -12.7757 0.53703 72.1824 -8.61799 -23.376 -18.1114 -6.94483 43.7801 -0.625283 -9.04308 -1.31587 11.2838 -13.9284 4.26682 -0.741949 44.9705 0.128866 -3.40963 -4.11053 5.80343 1.59028e-015 -1.59028e-015 3.18055e-015 -9.24361 -13.7437 -9.11045 0.350278 42.2049 -0.932487 3.29336 -2.18629 -6.63697 -4.77083e-015 4.77083e-015 -3.18055e-015 
0.453798 107.684 -4.19589 -1.87725 7.85019 156.836 3.91959 7.89646 -0.270182 6.00183 -15.9434 5.15316 -13.4191 31.2863 15.9132 -48.2079 -4.84589 3.68547 24.1765 -13.6302 -55.0282 -0.357596 -12.374 0.524402 70.7155 -9.63599 -24.8968 -16.5573 -5.8348 40.5126 -0.757723 -7.74425 -1.31307 12.2827 -13.0278 4.84401 -0.609902 46.4713 0.0392046 -3.08719 -2.80362 2.5128 -2.38542e-015 6.36111e-015 1.59028e-015 -9.24503 -10.7612 -7.50554 0.435885 40.624 -0.858669 4.26128 3.20959 -8.81828 -6.36111e-015 -6.36111e-015 9.54166e-015 
